<svg width="115" height="52" viewBox="0 0 115 52" fill="none" xmlns="http://www.w3.org/2000/svg">
<g clip-path="url(#clip0_7854_19544)">
<path d="M23.7351 11.9796H23.5378L18.7567 47.8329C18.691 48.312 18.8225 48.7254 19.1043 49.0729L20.6166 50.6603C20.889 51.0077 21.3023 51.2803 21.3023 51.4869C21.3023 51.6934 21.1614 51.9003 20.8232 51.9003H13.2336C12.9612 51.9003 12.8203 51.6934 12.8203 51.4869C12.8203 51.2803 13.0927 51.0077 13.2994 50.8012L15.2249 48.8757C15.6382 48.4623 15.704 47.7766 15.7791 47.1566L22.0443 0.905099C22.1101 0.557556 22.251 0.285156 22.5985 0.285156H25.1441C25.4916 0.285156 25.6982 0.632702 25.764 1.046L32.3016 47.2132C32.3673 47.8986 32.5739 48.6594 33.0625 49.0729L35.0536 50.8669C35.2605 51.0737 35.4671 51.2803 35.4671 51.4869C35.4671 51.6934 35.3262 51.9003 34.9879 51.9003H26.5812C26.2336 51.9003 26.1021 51.6934 26.1021 51.4869C26.1021 51.2803 26.3745 51.0737 26.5812 50.8669L28.441 49.0072C28.7134 48.7346 28.8542 48.2463 28.7885 47.6263L23.7445 11.9796H23.7351Z" fill="white"/>
<path d="M62.5161 11.9796H62.319L57.5379 47.8329C57.4721 48.312 57.6036 48.7254 57.8853 49.0729L59.3976 50.6603C59.6701 51.0077 60.0833 51.2803 60.0833 51.4869C60.0833 51.6934 59.9424 51.9003 59.6044 51.9003H52.0147C51.7424 51.9003 51.6016 51.6934 51.6016 51.4869C51.6016 51.2803 51.8738 51.0077 52.0804 50.8012L54.0061 48.8757C54.4193 48.4623 54.485 47.7766 54.5601 47.1566L60.8161 0.905099C60.8818 0.557556 61.0227 0.285156 61.3701 0.285156H63.9158C64.2633 0.285156 64.4698 0.632702 64.5358 1.046L71.0733 47.2132C71.139 47.8986 71.3456 48.6594 71.8341 49.0729L73.8256 50.8669C74.0321 51.0737 74.2387 51.2803 74.2387 51.4869C74.2387 51.6934 74.0978 51.9003 73.7598 51.9003H65.353C65.0053 51.9003 64.8738 51.6934 64.8738 51.4869C64.8738 51.2803 65.1461 51.0737 65.353 50.8669L67.2127 49.0072C67.4853 48.7346 67.6261 48.2463 67.5604 47.6263L62.5161 11.9796Z" fill="white"/>
<path d="M102.778 11.9796H102.581L97.7998 47.8329C97.7341 48.312 97.8656 48.7254 98.1473 49.0729L99.6596 50.6603C99.9321 51.0077 100.345 51.2803 100.345 51.4869C100.345 51.6934 100.204 51.9003 99.8661 51.9003H92.2767C92.0041 51.9003 91.8633 51.6934 91.8633 51.4869C91.8633 51.2803 92.1359 51.0077 92.3424 50.8012L94.2678 48.8757C94.6813 48.4623 94.747 47.7766 94.8221 47.1566L101.087 0.905099C101.153 0.557556 101.294 0.285156 101.642 0.285156H104.187C104.535 0.285156 104.741 0.632702 104.807 1.046L111.345 47.2132C111.41 47.8986 111.617 48.6594 112.106 49.0729L114.097 50.8669C114.304 51.0737 114.51 51.2803 114.51 51.4869C114.51 51.6934 114.369 51.9003 114.031 51.9003H105.624C105.277 51.9003 105.145 51.6934 105.145 51.4869C105.145 51.2803 105.418 51.0737 105.624 50.8669L107.484 49.0072C107.756 48.7346 107.897 48.2463 107.832 47.6263L102.788 11.9796H102.778Z" fill="white"/>
<path d="M38.3711 16.9026C38.3711 16.2827 38.2676 15.8224 37.9108 15.4561L36.3608 13.9626C36.2573 13.8123 36.0039 13.6526 36.0039 13.5024C36.0039 13.3521 36.107 13.1924 36.3139 13.1924H42.7668C48.1305 13.1924 50.9202 16.4988 50.9202 22.7452C50.9202 28.9917 49.1165 30.6917 47.097 31.9317C49.1073 32.9648 51.0233 35.1346 51.0233 40.8646C51.0233 48.3508 48.647 51.9106 44.4202 51.9106H36.3139C36.107 51.9106 36.0039 51.7603 36.0039 51.6008C36.0039 51.4411 36.2573 51.3471 36.3608 51.1406L37.9108 49.6468C38.277 49.29 38.3711 48.8203 38.3711 48.2006V16.9026ZM42.3442 30.9454H43.1145C45.641 30.9454 46.7308 28.9351 46.7308 22.7358C46.7308 17.4662 45.6505 15.7661 43.1145 15.7661H42.3442V30.9454ZM42.3442 49.3183H43.941C46.2142 49.3183 46.7308 47.4583 46.7308 40.4886C46.7308 35.4257 45.6505 33.5191 43.1145 33.5191H42.3442V49.3088V49.3183Z" fill="white"/>
<path d="M76.8908 16.9026C76.8908 16.2827 76.7405 15.8694 76.4305 15.4561L75.1436 13.9626C75.0405 13.8123 74.7868 13.6526 74.7868 13.446C74.7868 13.3427 74.8902 13.1924 75.0968 13.1924H81.2868C81.6436 13.1924 81.8033 13.5493 81.9068 14.0659L86.6596 36.2617H86.7631V16.9026C86.7631 16.2827 86.6596 15.8694 86.3028 15.5125L84.8562 13.9626C84.7528 13.8123 84.4899 13.6526 84.4899 13.446C84.4899 13.3427 84.5933 13.1924 84.7999 13.1924H91.6099C91.8165 13.1924 91.9199 13.3521 91.9199 13.446C91.9199 13.6526 91.7131 13.8029 91.5533 13.9626L90.2665 15.4561C89.9568 15.8694 89.8065 16.2827 89.8065 16.9026V51.3283C89.8065 51.6851 89.6562 51.892 89.2896 51.892H87.1199C86.6596 51.892 86.2465 51.3754 86.0868 50.6051L80.0471 22.4728H79.9436V48.1817C79.9436 48.8017 80.0939 49.2148 80.4602 49.5717L81.8505 51.1217C82.0008 51.272 82.2073 51.4317 82.2073 51.6383C82.2073 51.7417 82.1039 51.9014 81.8973 51.9014H75.0874C74.8808 51.9014 74.7773 51.7511 74.7773 51.6383C74.7773 51.4317 75.0311 51.2814 75.1345 51.1217L76.4213 49.6283C76.7311 49.2148 76.8813 48.8017 76.8813 48.1817V16.9026H76.8908Z" fill="white"/>
<path d="M12.6028 26.3416C12.6028 26.6046 12.4994 26.8018 12.2928 26.8018C12.0298 26.8018 11.9358 26.5482 11.8795 26.2383C11.2595 21.8987 9.76604 15.7556 7.13598 15.7556C4.86284 15.7556 4.44955 20.6588 4.44955 31.5549C4.44955 47.044 5.5861 49.3077 7.90621 49.3077C10.7429 49.3077 11.8325 39.8111 11.8325 39.3417C11.8325 39.0786 11.9828 38.9283 12.2458 38.9283C12.5088 38.9283 12.6028 39.0786 12.6028 39.3886C12.6028 47.0251 11.4662 51.8814 6.92932 51.8814C0.889565 51.8814 0.222656 40.1117 0.222656 31.4889C0.222656 25.1393 0.47627 13.1631 6.92932 13.1631C7.75592 13.1631 8.62947 13.6233 9.4091 14.2433C9.71907 14.5063 10.029 14.5533 10.2827 14.5533C10.5363 14.5533 10.9026 14.3466 11.2595 13.9333C11.5695 13.5764 11.9828 13.1631 12.2364 13.1631C12.5464 13.1631 12.5934 13.52 12.5934 14.0366V26.3228L12.6028 26.3416Z" fill="white"/>
</g>
<defs>
<clipPath id="clip0_7854_19544">
<rect width="114.571" height="52" fill="white" transform="translate(0.214844)"/>
</clipPath>
</defs>
</svg>
