<svg width="80" height="55" viewBox="0 0 80 55" fill="none" xmlns="http://www.w3.org/2000/svg">
<g clip-path="url(#clip0_7901_36603)">
<mask id="mask0_7901_36603" style="mask-type:luminance" maskUnits="userSpaceOnUse" x="0" y="0" width="80" height="55">
<path d="M79.404 0H0.429688V54.8433H79.404V0Z" fill="white"/>
</mask>
<g mask="url(#mask0_7901_36603)">
<path d="M14.9849 0.900391V29.7765V38.7363H6.5785V29.7765V24.3061V0.900391H0.421875V53.9419H6.5785V44.2067H14.9849V53.9419H21.1415V0.900391H14.9849Z" fill="white"/>
<path d="M25.2695 53.9419V0.900391H31.4261V53.9441H25.2695V53.9419Z" fill="white"/>
<path d="M51.2412 53.9419L44.5598 31.5066H41.7074V53.9419H35.5508V0.900391H45.6093C52.1401 0.900391 55.8939 3.32298 55.8939 11.9802V20.2206C55.8939 25.9689 54.543 29.223 50.3373 30.5385L57.3954 53.9441H51.2388L51.2412 53.9419ZM49.7397 11.7023C49.7397 7.82528 48.3888 6.44031 45.5364 6.44031H41.7074V26.0362H45.5364C48.3888 26.0362 49.7397 24.6512 49.7397 20.7741V11.7023Z" fill="white"/>
<path d="M58.6797 11.0798C58.6797 2.70049 63.1842 0 69.2655 0C75.3467 0 79.3993 2.76995 79.3993 11.0798V43.7635C79.3993 52.2123 74.7442 54.8433 69.0394 54.8433C63.3348 54.8433 58.6797 52.1428 58.6797 43.7635V11.0798ZM73.2427 10.5957C73.2427 6.85541 71.2164 5.33373 69.0394 5.33373C66.8626 5.33373 64.8363 6.85765 64.8363 10.5957V44.2498C64.8363 48.0573 66.7873 49.5118 69.0394 49.5118C71.2918 49.5118 73.2427 48.0573 73.2427 44.2498V10.5957Z" fill="white"/>
</g>
</g>
<defs>
<clipPath id="clip0_7901_36603">
<rect width="78.9744" height="55" fill="white" transform="translate(0.4375)"/>
</clipPath>
</defs>
</svg>
