<svg width="210" height="90" viewBox="0 0 210 90" fill="none" xmlns="http://www.w3.org/2000/svg">
<path d="M23.3211 32.1989C23.2836 32.1926 23.2451 32.1946 23.2085 32.2048C23.1718 32.2149 23.1378 32.233 23.1089 32.2578C23.08 32.2825 23.0569 32.3134 23.0413 32.348C23.0256 32.3827 23.0178 32.4204 23.0183 32.4585V34.275C23.0183 34.4048 23.1048 34.5346 23.2346 34.5346C24.7051 34.8373 26.1325 35.4861 27.3868 36.3944L25.5702 41.4549H17.2226L15.406 36.3944C16.6603 35.4861 18.0876 34.8373 19.5582 34.5346C19.6879 34.5346 19.7744 34.4048 19.7744 34.275V32.4585C19.7744 32.372 19.7744 32.3287 19.6879 32.2422L19.4717 32.1989C17.7684 32.4994 16.1447 33.1452 14.7004 34.0968C13.2562 35.0483 12.022 36.2855 11.0739 37.732C10.1258 39.1785 9.48378 40.8037 9.18742 42.5077C8.89107 44.2116 8.94664 45.9582 9.35071 47.6399H9.56697L11.2105 46.9911C11.3403 46.9911 11.3836 46.8614 11.3836 46.7316C11.1245 45.2391 11.1833 43.7088 11.5559 42.2406C11.9286 40.7724 12.6067 39.3993 13.5462 38.211L19.6447 55.2955C18.1805 55.0235 16.794 54.4332 15.5832 53.5662C14.3724 52.6992 13.3669 51.5768 12.6379 50.2783C12.5946 50.1485 12.4216 50.1052 12.3351 50.1485L10.6483 50.7973C10.5926 50.8261 10.5473 50.8714 10.5185 50.927V51.1865C12.6811 55.2522 16.8765 57.8041 21.418 57.8041C25.9162 57.8041 30.0684 55.2522 32.2742 51.1865V50.927C32.2742 50.8838 32.231 50.7973 32.1445 50.7973L30.5009 50.1485C30.3712 50.1485 30.2414 50.1485 30.1549 50.2783C29.4258 51.5768 28.4203 52.6992 27.2095 53.5662C25.9987 54.4332 24.6122 55.0235 23.1481 55.2955L29.2466 38.2542C30.186 39.4425 30.8642 40.8156 31.2368 42.2838C31.6095 43.7521 31.6682 45.2824 31.4092 46.7748C31.4092 46.9046 31.4957 46.9911 31.5822 47.0776L33.2258 47.6831H33.4853L33.615 47.4669C33.7448 46.6451 33.8313 45.8233 33.8313 44.9583C33.8964 41.9257 32.8716 38.9703 30.943 36.629C29.0144 34.2877 26.31 32.7159 23.3211 32.1989ZM24.7051 43.877L21.418 53.1329L18.0876 43.9202L24.7051 43.877Z" fill="white"/>
<path d="M200.784 33.2802H196.112C196.026 33.2802 195.939 33.3234 195.896 33.4532L189.668 50.1484C189.625 50.2782 189.538 50.3214 189.408 50.3214C189.322 50.3214 189.235 50.2782 189.192 50.1484L182.964 33.4532C182.964 33.3234 182.834 33.2802 182.748 33.2802H178.12C177.947 33.2802 177.86 33.3667 177.86 33.4965V56.5065C177.86 56.6795 177.947 56.766 178.12 56.766H181.58C181.796 56.766 181.883 56.6795 181.883 56.5065V42.3631C181.883 42.1901 181.969 42.1036 182.099 42.1036C182.229 42.1036 182.315 42.1036 182.358 42.2333L187.678 56.6362L187.808 56.7227L187.938 56.766H190.965C191.052 56.766 191.138 56.766 191.182 56.6362L196.502 42.2333C196.545 42.1468 196.631 42.1036 196.761 42.1036C196.891 42.1036 196.978 42.1901 196.978 42.3631V56.5065C196.978 56.6795 197.064 56.766 197.237 56.766H200.784C200.957 56.766 201 56.6795 201 56.5065V33.4965C201 33.3667 200.957 33.2802 200.784 33.2802Z" fill="white"/>
<path d="M168.734 47.0344C168.707 47.0647 168.674 47.0883 168.636 47.1033C168.598 47.1183 168.558 47.1244 168.518 47.1209H162.895C162.765 47.1209 162.679 47.1209 162.635 47.0344V46.8182L165.49 38.9463C165.533 38.8598 165.62 38.7733 165.706 38.7733C165.836 38.7733 165.879 38.8598 165.923 38.9463L168.734 46.8182V47.0344ZM167.869 33.4101C167.869 33.2803 167.782 33.2371 167.653 33.2371H163.89C163.76 33.2371 163.717 33.2803 163.673 33.4101L154.764 56.4201C154.72 56.6364 154.764 56.7229 155.023 56.7229H158.829C158.916 56.7229 159.002 56.6796 159.045 56.5499L161.208 50.7541C161.208 50.6676 161.295 50.6243 161.424 50.6243H169.945C170.075 50.6243 170.118 50.6243 170.161 50.7541L172.281 56.5499C172.281 56.6796 172.367 56.7229 172.497 56.7229H176.519C176.779 56.7229 176.865 56.6364 176.779 56.4201L167.869 33.4101Z" fill="white"/>
<path d="M153.942 33.237H150.266C150.092 33.237 150.006 33.3235 150.006 33.4965V50.1485C150.006 51.3596 149.79 52.2246 149.357 52.7436C148.925 53.2626 148.189 53.5222 147.108 53.5222C146.07 53.5222 145.335 53.2626 144.859 52.6571C144.426 52.0948 144.21 51.1 144.21 49.716V48.4184C144.21 48.2454 144.124 48.1589 143.994 48.1589H140.274C140.101 48.1589 140.058 48.2454 140.058 48.4184V50.1485C140.058 52.4409 140.664 54.2142 141.875 55.4252C143.086 56.6363 144.816 57.2851 147.065 57.2851C149.314 57.2851 151.044 56.6795 152.298 55.555C153.596 54.3007 154.201 52.7004 154.201 50.5378V33.4965C154.201 33.3235 154.115 33.237 153.942 33.237Z" fill="white"/>
<path d="M81.1919 53.0032H70.0329C69.8599 53.0032 69.7734 52.9167 69.7734 52.7437V33.4966C69.7734 33.3236 69.6869 33.2371 69.5572 33.2371H65.8375C65.6645 33.2371 65.6213 33.3236 65.6213 33.4966V56.4633C65.6213 56.6364 65.6645 56.7229 65.8375 56.7229H81.1919C81.3649 56.7229 81.4082 56.6364 81.4082 56.4633V53.2195C81.4082 53.0897 81.3649 53.0032 81.1919 53.0032Z" fill="white"/>
<path d="M61.2966 44.6987C60.4315 44.1797 59.5665 43.7904 58.4852 43.4877L55.371 42.7091L53.0787 42.1036C52.4299 41.9306 51.8676 41.7576 51.3919 41.5413C50.9594 41.3251 50.5701 41.0223 50.3538 40.7196C50.0943 40.4168 49.9646 40.0275 49.9646 39.595C49.9646 38.8597 50.1376 38.2974 50.3971 37.8649C51.0306 37.0984 51.9231 36.5906 52.9057 36.4376H54.2897C57.1011 36.4376 58.7014 37.6054 59.0475 40.0708C59.0907 40.2438 59.1772 40.287 59.307 40.287H62.8536C63.0266 40.287 63.1131 40.2005 63.1131 40.0275C63.0266 37.7784 62.1616 35.9186 60.6478 34.621C59.0907 33.3235 57.0146 32.7179 54.4195 32.7179C53.3815 32.7179 52.3002 32.8477 51.2621 33.1505C50.2241 33.41 49.3158 33.7992 48.5372 34.4048C47.6722 34.967 47.0667 35.7023 46.5477 36.6106C46.0321 37.5968 45.7789 38.699 45.8124 39.8113C45.7657 40.7771 45.9875 41.7371 46.4532 42.5845C46.9189 43.432 47.6104 44.1339 48.4507 44.6122C49.2293 45.088 50.0511 45.4773 50.9161 45.6935L53.3815 46.3423L53.7707 46.3856L54.1167 46.5153L56.5821 47.0776C57.2741 47.2506 57.8797 47.5101 58.3987 47.7696C58.8745 48.0291 59.2637 48.3319 59.5232 48.7212C59.7827 49.0672 59.9558 49.5429 59.9558 50.062C59.9558 50.4945 59.8692 50.8838 59.7395 51.273C59.5785 51.6951 59.3102 52.0678 58.961 52.3543C58.6149 52.7003 58.0959 52.9599 57.4904 53.1761C56.8416 53.3924 55.9766 53.4789 54.9385 53.4789C54.2897 53.4789 53.5977 53.3924 52.9057 53.2626C52.2569 53.0896 51.6081 52.8301 51.0891 52.4841C50.5149 52.1051 50.0416 51.592 49.71 50.9892C49.3784 50.3863 49.1986 49.7118 49.186 49.0239C49.186 48.8509 49.0563 48.8077 48.9265 48.8077H45.3799C45.2501 48.8077 45.1636 48.8509 45.1636 49.0239C45.1636 50.3215 45.4231 51.446 45.8989 52.4841C46.3464 53.4832 47.0113 54.3698 47.8452 55.0792C48.7103 55.7712 49.705 56.2903 50.8728 56.6795C52.5753 57.2129 54.3705 57.3845 56.1432 57.1834C57.9159 56.9823 59.627 56.4129 61.1668 55.5117C62.0318 54.9062 62.7239 54.1709 63.2861 53.2194C63.8052 52.3543 64.1079 51.2298 64.1079 49.9755C64.1079 48.6779 63.8484 47.5534 63.3294 46.7316C62.8104 45.8665 62.1183 45.2178 61.2966 44.6987Z" fill="white"/>
<path d="M128.467 33.2802H123.795C123.666 33.2802 123.622 33.3234 123.579 33.4532L117.351 50.1484C117.308 50.2782 117.221 50.3214 117.091 50.3214C117.005 50.3214 116.918 50.2782 116.875 50.1484L110.647 33.4532C110.647 33.3234 110.517 33.2802 110.431 33.2802H105.803C105.63 33.2802 105.543 33.3667 105.543 33.4965V56.5065C105.543 56.6795 105.63 56.766 105.803 56.766H109.263C109.479 56.766 109.565 56.6795 109.565 56.5065V42.3631C109.565 42.1901 109.652 42.1036 109.782 42.1036C109.911 42.1036 109.998 42.1036 110.041 42.2333L115.361 56.6362L115.491 56.7227L115.621 56.766H118.648C118.735 56.766 118.821 56.766 118.865 56.6362L124.185 42.2333C124.228 42.1468 124.314 42.1036 124.444 42.1036C124.574 42.1036 124.66 42.1901 124.66 42.3631V56.5065C124.66 56.6795 124.747 56.766 124.92 56.766H128.467C128.64 56.766 128.683 56.6795 128.683 56.5065V33.4965C128.683 33.3667 128.64 33.2802 128.467 33.2802Z" fill="white"/>
<path d="M96.4599 47.0344C96.4331 47.0647 96.3996 47.0883 96.362 47.1033C96.3245 47.1183 96.2839 47.1244 96.2436 47.1209H90.6209C90.4911 47.1209 90.4479 47.1209 90.3614 47.0344V46.8182L93.216 38.9463C93.2593 38.8598 93.3458 38.7733 93.4323 38.7733C93.562 38.7733 93.6053 38.8598 93.6485 38.9463L96.4599 46.8182V47.0344ZM95.5949 33.4101C95.5949 33.2803 95.5084 33.2371 95.3786 33.2371H91.6157C91.4859 33.2371 91.4427 33.2803 91.3994 33.4101L82.4895 56.4201C82.4463 56.6364 82.4895 56.7229 82.749 56.7229H86.5552C86.6417 56.7229 86.7282 56.6796 86.7715 56.5499L88.9341 50.7541C88.9341 50.6676 89.0206 50.6243 89.1503 50.6243H97.671C97.7575 50.6243 97.844 50.6243 97.8872 50.7541L100.007 56.5499C100.007 56.6796 100.093 56.7229 100.223 56.7229H104.245C104.505 56.7229 104.548 56.6364 104.505 56.4201L95.5949 33.4101Z" fill="white"/>
</svg>
